<svg width="34" height="34" viewBox="0 0 34 34" fill="none" xmlns="http://www.w3.org/2000/svg">
<path d="M21.7947 25.9062C23.253 22.9375 23.9822 19.9688 23.9822 17C23.9822 13.9792 23.253 11.0104 21.7947 8.09375L19.5291 9.26562C20.8311 11.8177 21.4822 14.3958 21.4822 17C21.4822 19.6042 20.8311 22.2083 19.5291 24.8125L21.7947 25.9062ZM16.5603 23.7188C17.6541 21.7917 18.2009 19.6302 18.2009 17.2344C18.2009 14.7865 17.6541 12.5208 16.5603 10.4375L14.3728 11.5312C15.2582 13.4062 15.7009 15.3073 15.7009 17.2344C15.7009 19.1094 15.2582 20.8542 14.3728 22.4688L16.5603 23.7188ZM11.4041 21.0625C12.0291 19.7083 12.3416 18.3281 12.3416 16.9219C12.3416 15.6719 12.0291 14.3438 11.4041 12.9375L9.13843 13.9531C9.60718 14.8906 9.84155 15.8802 9.84155 16.9219C9.84155 18.0156 9.60718 19.0573 9.13843 20.0469L11.4041 21.0625ZM5.54468 5.28125C8.82593 2 12.7582 0.359375 17.3416 0.359375C21.9249 0.359375 25.8311 2 29.0603 5.28125C32.3416 8.51042 33.9822 12.4167 33.9822 17C33.9822 21.5833 32.3416 25.5156 29.0603 28.7969C25.8311 32.026 21.9249 33.6406 17.3416 33.6406C12.7582 33.6406 8.82593 32.026 5.54468 28.7969C2.31551 25.5156 0.700928 21.5833 0.700928 17C0.700928 12.4167 2.31551 8.51042 5.54468 5.28125Z" fill="#3ABB9C"/>
</svg>
